<?xml version="1.0"?>
<svg xmlns="http://www.w3.org/2000/svg" data-name="Layer 1" id="Layer_1" viewBox="0 0 512 512"><path d="M415.78,102.29H96.22a5.86,5.86,0,0,0-5.86,5.87V403.84a5.86,5.86,0,0,0,5.86,5.87H415.78a5.86,5.86,0,0,0,5.86-5.87V108.16A5.86,5.86,0,0,0,415.78,102.29Zm-5.86,253.45H315.13V325.22h94.79Zm-153.92,0H208.61V325.22H303.4v30.52Zm-106.52,0h-47.4V325.22h94.8v30.52Zm-47.4-199.48h94.8v30.52h-94.8Zm153.92,0h47.4v30.52H208.61V156.26Zm106.52,0h47.4v30.52H315.13V156.26Zm47.4,115H315.13V240.74h94.79ZM356.66,313.5h-94.8V283h94.8Zm-153.92,0H155.35V283h94.79V313.5ZM102.08,240.74h94.8v30.52h-94.8Zm53.27-42.24h94.79V229H155.35Zm153.91,0h47.4V229h-94.8V198.5Zm-5.86,72.76H208.61V240.74H303.4Zm65-42.25V198.5h41.53V229ZM143.62,198.5V229H102.08V198.5ZM102.08,283h41.54V313.5H102.08ZM368.39,313.5V283h41.53V313.5Zm41.53-169H368.39V114h41.53Zm-53.26,0h-94.8V114h94.8Zm-106.52,0H155.35V114h94.79ZM143.62,114v30.52H102.08V114ZM102.08,367.47h41.54V398H102.08Zm53.27,0h94.79V398H155.35Zm106.51,0h94.8V398h-94.8ZM368.39,398V367.47h41.53V398Z"/></svg>
