<svg id="Layer_1" viewBox="0 0 64 64" xmlns="http://www.w3.org/2000/svg" data-name="Layer 1"><path d="m10.926 37.516h17.281v23.484c0 .552.447 1 1 1h5.615c.553 0 1-.448 1-1v-23.484h16.912c2.633 0 4.775-2.143 4.775-4.776v-21.992c0-2.634-2.143-4.776-4.775-4.776h-16.912v-2.972c0-.552-.447-1-1-1h-5.615c-.553 0-1 .448-1 1v2.972h-17.281c-2.633 0-4.775 2.143-4.775 4.776v21.992c0 2.634 2.143 4.776 4.775 4.776zm22.896 22.484h-3.615v-22.484h3.615zm-3.615-56h3.615v1.972h-3.615zm-22.057 6.748c0-1.531 1.245-2.776 2.775-2.776h41.809c1.53 0 2.775 1.246 2.775 2.776v21.992c0 1.531-1.245 2.776-2.775 2.776h-41.808c-1.53 0-2.775-1.246-2.775-2.776v-21.992z"/><path d="m32 20.765c-3.799 0-6.89 3.122-6.89 6.958 0 1.147.288 1.952.882 2.459.919.785 2.219.58 3.595.364.736-.116 1.57-.248 2.413-.248s1.677.132 2.413.248c.631.099 1.245.196 1.815.196.672 0 1.281-.135 1.779-.561.594-.507.882-1.312.882-2.459 0-3.836-3.091-6.958-6.89-6.958zm4.708 7.896c-.221.187-1.239.026-1.983-.091-.809-.128-1.726-.272-2.725-.272s-1.916.145-2.725.272c-.745.117-1.765.278-1.983.091-.067-.058-.182-.32-.182-.938 0-2.734 2.193-4.958 4.89-4.958s4.89 2.224 4.89 4.958c0 .619-.114.881-.182.938z"/><path d="m32 19.873c1.782 0 3.231-1.697 3.231-3.783s-1.449-3.784-3.231-3.784-3.231 1.697-3.231 3.784 1.449 3.783 3.231 3.783zm0-5.567c.668 0 1.231.817 1.231 1.784s-.563 1.783-1.231 1.783-1.231-.816-1.231-1.783.563-1.784 1.231-1.784z"/><path d="m37.766 21.651c.314.115.639.169.963.169 1.398 0 2.791-1.021 3.373-2.612.717-1.958-.062-4.051-1.735-4.664-1.671-.614-3.618.483-4.336 2.443-.716 1.959.063 4.051 1.735 4.664zm.144-3.977c.282-.772.911-1.303 1.479-1.303.1 0 .197.017.291.051.627.23.877 1.19.544 2.098-.331.909-1.139 1.484-1.77 1.252-.627-.229-.876-1.19-.544-2.098z"/><path d="m25.271 21.821c.324 0 .648-.055.963-.17.838-.307 1.496-1.009 1.806-1.928.287-.853.262-1.825-.071-2.735-.333-.911-.94-1.669-1.711-2.136-.83-.502-1.786-.615-2.624-.307-1.674.613-2.452 2.705-1.735 4.664.582 1.591 1.975 2.612 3.373 2.612zm-.95-5.398c.097-.035.192-.049.285-.049.255 0 .482.109.615.189.377.228.693.633.868 1.112.176.479.195.993.055 1.41-.067.2-.234.555-.598.688-.628.231-1.438-.344-1.77-1.251-.333-.908-.083-1.868.544-2.098z"/></svg>