<svg xmlns="http://www.w3.org/2000/svg" viewBox="0 0 500 500"><g id="freepik--background-complete--inject-2"><rect y="382.4" width="500" height="0.25" style="fill:#e0e0e0"></rect><rect x="384.97" y="393.28" width="20.54" height="0.25" style="fill:#e0e0e0"></rect><rect x="412.84" y="393.15" width="12.69" height="0.25" style="fill:#e0e0e0"></rect><rect x="276.89" y="393.15" width="38.81" height="0.25" style="fill:#e0e0e0"></rect><rect x="154.21" y="397.54" width="47.46" height="0.25" style="fill:#e0e0e0"></rect><rect x="95.44" y="389.63" width="7.07" height="0.25" style="fill:#e0e0e0"></rect><rect x="108.07" y="389.63" width="54.49" height="0.25" style="fill:#e0e0e0"></rect><rect x="70.35" y="395.67" width="28.63" height="0.25" style="fill:#e0e0e0"></rect><path d="M237,337.8H43.91a5.71,5.71,0,0,1-5.7-5.71V60.66A5.71,5.71,0,0,1,43.91,55H237a5.71,5.71,0,0,1,5.71,5.71V332.09A5.71,5.71,0,0,1,237,337.8ZM43.91,55.2a5.46,5.46,0,0,0-5.45,5.46V332.09a5.46,5.46,0,0,0,5.45,5.46H237a5.47,5.47,0,0,0,5.46-5.46V60.66A5.47,5.47,0,0,0,237,55.2Z" style="fill:#e0e0e0"></path><path d="M453.31,337.8H260.21a5.72,5.72,0,0,1-5.71-5.71V60.66A5.72,5.72,0,0,1,260.21,55h193.1A5.71,5.71,0,0,1,459,60.66V332.09A5.71,5.71,0,0,1,453.31,337.8ZM260.21,55.2a5.47,5.47,0,0,0-5.46,5.46V332.09a5.47,5.47,0,0,0,5.46,5.46h193.1a5.47,5.47,0,0,0,5.46-5.46V60.66a5.47,5.47,0,0,0-5.46-5.46Z" style="fill:#e0e0e0"></path><path d="M77.23,382.4H56.68S44,371.16,39.91,356.08C38,349.13,47.35,344.34,53,349.3,66.22,360.92,77.23,382.4,77.23,382.4Z" style="fill:#ebebeb"></path><path d="M85.88,382.4H65.33s-11.75-24.14-7.21-41.71a7.86,7.86,0,0,1,13.45-3.32C87.11,354.47,85.88,382.4,85.88,382.4Z" style="fill:#ebebeb"></path><path d="M85.9,382.4H99.17s8.32-14.67,16.13-32.7c7.29-16.81-5.13-23.83-12.93-7.31C92.45,363.41,85.9,382.4,85.9,382.4Z" style="fill:#ebebeb"></path><path d="M89.53,382.4h20.55s20.69-9.79,19.54-28.32c-.31-4.85-5.85-8-10.76-6.12C96.8,356.42,89.53,382.4,89.53,382.4Z" style="fill:#ebebeb"></path><path d="M78,382.4H98.54s6.21-34.28-1.15-55.87c-2.2-6.45-10-7.58-13.62-2C70.38,345.41,78,382.4,78,382.4Z" style="fill:#ebebeb"></path><polygon points="214.11 200 272 154.03 440.75 208.33 214.11 208.33 214.11 200" style="fill:#e0e0e0"></polygon><rect x="337.22" y="216.67" width="96.44" height="165.73" transform="translate(770.89 599.07) rotate(180)" style="fill:#ebebeb"></rect><path d="M408.83,382.4H390.28s-11.43-9-15.15-21.16c-1.71-5.59,6.72-9.45,11.82-5.46C398.89,365.13,408.83,382.4,408.83,382.4Z" style="fill:#f5f5f5"></path><path d="M416.65,382.4H398.09s-10.61-19.41-6.51-33.54c1.42-4.9,8.32-6.41,12.14-2.67C417.76,359.94,416.65,382.4,416.65,382.4Z" style="fill:#f5f5f5"></path><path d="M416.67,382.4h12a296.28,296.28,0,0,0,14.58-26.29c6.58-13.52-4.64-19.17-11.68-5.88A336.33,336.33,0,0,0,416.67,382.4Z" style="fill:#f5f5f5"></path><path d="M419.94,382.4H438.5s18.69-7.87,17.64-22.77c-.27-3.9-5.28-6.43-9.71-4.92C426.51,361.51,419.94,382.4,419.94,382.4Z" style="fill:#f5f5f5"></path><path d="M409.53,382.4h18.55s5.61-27.56-1-44.93a7.08,7.08,0,0,0-12.3-1.58C402.65,352.65,409.53,382.4,409.53,382.4Z" style="fill:#f5f5f5"></path><polygon points="337.22 216.67 433.67 216.67 440.75 208.33 337.22 208.33 337.22 216.67" style="fill:#e0e0e0"></polygon><rect x="294.79" y="230.46" width="96.27" height="80.56" style="fill:#e0e0e0"></rect><rect x="307.73" y="227.12" width="70.39" height="87.22" transform="translate(613.66 -72.19) rotate(90)" style="fill:#f5f5f5"></rect><rect x="296.67" y="267.32" width="92.53" height="6.82" style="fill:#e0e0e0"></rect><rect x="91" y="187.85" width="246.22" height="194.54" style="fill:#f5f5f5"></rect><rect x="110.08" y="222.55" width="115.18" height="96.38" style="fill:#ebebeb"></rect><rect x="125.56" y="218.56" width="84.22" height="104.35" transform="translate(438.4 103.07) rotate(90)" style="fill:#fafafa"></rect><rect x="134.25" y="209.86" width="66.83" height="104.35" transform="translate(429.71 94.37) rotate(90)" style="fill:#f5f5f5"></rect><rect x="112.32" y="291.37" width="110.7" height="8.16" style="fill:#ebebeb"></rect><rect x="251.63" y="218.63" width="65.81" height="139.93" transform="translate(569.08 577.18) rotate(180)" style="fill:#e0e0e0"></rect><rect x="216.16" y="260.74" width="136.75" height="58.88" transform="translate(574.72 5.64) rotate(90)" style="fill:#ebebeb"></rect><rect x="257.67" y="229.92" width="53.73" height="48.48" transform="translate(538.69 -30.39) rotate(90)" style="fill:#e0e0e0"></rect><rect x="257.67" y="291.86" width="53.73" height="48.48" transform="translate(600.64 31.56) rotate(90)" style="fill:#e0e0e0"></rect><polygon points="341.22 201.41 87 201.41 87 183.85 214.11 117.63 341.22 183.85 341.22 201.41" style="fill:#ebebeb"></polygon><polygon points="352.46 193.09 214.11 121.02 75.76 193.09 72.99 187.77 214.11 114.25 355.23 187.77 352.46 193.09" style="fill:#e0e0e0"></polygon><path d="M214.11,189.73a27.38,27.38,0,1,1,27.37-27.38A27.41,27.41,0,0,1,214.11,189.73Zm0-48.75a21.38,21.38,0,1,0,21.37,21.37A21.4,21.4,0,0,0,214.11,141Z" style="fill:#e0e0e0"></path><circle cx="214.11" cy="162.35" r="19.93" style="fill:#f5f5f5"></circle><rect x="243.19" y="356.22" width="82.7" height="4.29" style="fill:#ebebeb"></rect><rect x="245.08" y="360.52" width="78.92" height="8.79" style="fill:#e0e0e0"></rect><rect x="236.91" y="369.31" width="95.26" height="4.29" style="fill:#ebebeb"></rect><rect x="239.09" y="373.6" width="90.9" height="8.79" style="fill:#e0e0e0"></rect><path d="M310.75,281.81a3.63,3.63,0,1,1-3.63-3.63A3.63,3.63,0,0,1,310.75,281.81Z" style="fill:#fafafa"></path><path d="M73.62,90.4c-5.8-12.53-1.19-21.46,13-21.46,8.89,0,19.91,3.52,30.65,9.23,1.21-3.26,4.63-5.21,10.13-5.21,9.67,0,23,6,33.46,14.55,2.53-1.89,6.19-3.06,10.9-3.24C181,83.88,192.22,87.35,202,93a6,6,0,0,1,4.29-1.62c5.34-.22,12.56,3.28,16.14,7.81.23.29.43.56.62.84H66.42C61.47,95.57,66.94,90.62,73.62,90.4Z" style="fill:#f5f5f5"></path><path d="M278.36,111.63a11.9,11.9,0,0,1,1.34-.07c-.41-4.65,2-7.62,7.14-7.62,3.72,0,8.27,1.55,12.91,4.17-1.32-9,2.93-14.89,12.56-14.89,7.77,0,17.61,3.82,27.33,10,.85-3.54,3.72-5.66,8.53-5.66,8.45,0,20.46,6.55,30.09,15.8,0,0,0,0,0,0,2.08-2.06,5.2-3.33,9.31-3.54,8.05-.41,18,3.35,26.9,9.49a4.34,4.34,0,0,1,3.66-1.76c4.4-.23,10.46,3.16,14,7.69H271.28C267.5,118.41,270.51,112.4,278.36,111.63Z" style="fill:#f5f5f5"></path></g><g id="freepik--Shadow--inject-2"><ellipse cx="250" cy="416.24" rx="193.89" ry="11.32" style="fill:#f5f5f5"></ellipse></g></svg>